<?xml version="1.0" encoding="utf-8"?>
<svg xmlns="http://www.w3.org/2000/svg" xmlns:xlink="http://www.w3.org/1999/xlink" width="550" height="300" viewBox="0 0 2200 1200">
<defs>
  <clipPath id="clip630">
    <rect x="0" y="0" width="2200" height="1200"/>
  </clipPath>
</defs>
<path clip-path="url(#clip630)" d="M0 1200 L2200 1200 L2200 0 L0 0  Z" fill="#ffffff" fill-rule="evenodd" fill-opacity="1"/>
<defs>
  <clipPath id="clip631">
    <rect x="440" y="0" width="1541" height="1200"/>
  </clipPath>
</defs>
<path clip-path="url(#clip630)" d="M208.74 1042.1 L2152.76 1042.1 L2152.76 47.2441 L208.74 47.2441  Z" fill="#ffffff" fill-rule="evenodd" fill-opacity="1"/>
<defs>
  <clipPath id="clip632">
    <rect x="208" y="47" width="1945" height="996"/>
  </clipPath>
</defs>
<polyline clip-path="url(#clip632)" style="stroke:#000000; stroke-linecap:round; stroke-linejoin:round; stroke-width:2; stroke-opacity:0.1; fill:none" points="263.759,1042.1 263.759,47.2441 "/>
<polyline clip-path="url(#clip632)" style="stroke:#000000; stroke-linecap:round; stroke-linejoin:round; stroke-width:2; stroke-opacity:0.1; fill:none" points="630.555,1042.1 630.555,47.2441 "/>
<polyline clip-path="url(#clip632)" style="stroke:#000000; stroke-linecap:round; stroke-linejoin:round; stroke-width:2; stroke-opacity:0.1; fill:none" points="997.35,1042.1 997.35,47.2441 "/>
<polyline clip-path="url(#clip632)" style="stroke:#000000; stroke-linecap:round; stroke-linejoin:round; stroke-width:2; stroke-opacity:0.1; fill:none" points="1364.15,1042.1 1364.15,47.2441 "/>
<polyline clip-path="url(#clip632)" style="stroke:#000000; stroke-linecap:round; stroke-linejoin:round; stroke-width:2; stroke-opacity:0.1; fill:none" points="1730.94,1042.1 1730.94,47.2441 "/>
<polyline clip-path="url(#clip632)" style="stroke:#000000; stroke-linecap:round; stroke-linejoin:round; stroke-width:2; stroke-opacity:0.1; fill:none" points="2097.74,1042.1 2097.74,47.2441 "/>
<polyline clip-path="url(#clip630)" style="stroke:#000000; stroke-linecap:round; stroke-linejoin:round; stroke-width:4; stroke-opacity:1; fill:none" points="208.74,1042.1 2152.76,1042.1 "/>
<polyline clip-path="url(#clip630)" style="stroke:#000000; stroke-linecap:round; stroke-linejoin:round; stroke-width:4; stroke-opacity:1; fill:none" points="263.759,1042.1 263.759,1023.21 "/>
<polyline clip-path="url(#clip630)" style="stroke:#000000; stroke-linecap:round; stroke-linejoin:round; stroke-width:4; stroke-opacity:1; fill:none" points="630.555,1042.1 630.555,1023.21 "/>
<polyline clip-path="url(#clip630)" style="stroke:#000000; stroke-linecap:round; stroke-linejoin:round; stroke-width:4; stroke-opacity:1; fill:none" points="997.35,1042.1 997.35,1023.21 "/>
<polyline clip-path="url(#clip630)" style="stroke:#000000; stroke-linecap:round; stroke-linejoin:round; stroke-width:4; stroke-opacity:1; fill:none" points="1364.15,1042.1 1364.15,1023.21 "/>
<polyline clip-path="url(#clip630)" style="stroke:#000000; stroke-linecap:round; stroke-linejoin:round; stroke-width:4; stroke-opacity:1; fill:none" points="1730.94,1042.1 1730.94,1023.21 "/>
<polyline clip-path="url(#clip630)" style="stroke:#000000; stroke-linecap:round; stroke-linejoin:round; stroke-width:4; stroke-opacity:1; fill:none" points="2097.74,1042.1 2097.74,1023.21 "/>
<path clip-path="url(#clip630)" d="M263.759 1071.42 Q260.148 1071.42 258.32 1074.99 Q256.514 1078.53 256.514 1085.66 Q256.514 1092.76 258.32 1096.33 Q260.148 1099.87 263.759 1099.87 Q267.394 1099.87 269.199 1096.33 Q271.028 1092.76 271.028 1085.66 Q271.028 1078.53 269.199 1074.99 Q267.394 1071.42 263.759 1071.42 M263.759 1067.72 Q269.57 1067.72 272.625 1072.32 Q275.704 1076.91 275.704 1085.66 Q275.704 1094.39 272.625 1098.99 Q269.57 1103.57 263.759 1103.57 Q257.949 1103.57 254.871 1098.99 Q251.815 1094.39 251.815 1085.66 Q251.815 1076.91 254.871 1072.32 Q257.949 1067.72 263.759 1067.72 Z" fill="#000000" fill-rule="nonzero" fill-opacity="1" /><path clip-path="url(#clip630)" d="M620.937 1098.97 L628.576 1098.97 L628.576 1072.6 L620.266 1074.27 L620.266 1070.01 L628.529 1068.34 L633.205 1068.34 L633.205 1098.97 L640.844 1098.97 L640.844 1102.9 L620.937 1102.9 L620.937 1098.97 Z" fill="#000000" fill-rule="nonzero" fill-opacity="1" /><path clip-path="url(#clip630)" d="M992.003 1098.97 L1008.32 1098.97 L1008.32 1102.9 L986.378 1102.9 L986.378 1098.97 Q989.04 1096.21 993.623 1091.58 Q998.23 1086.93 999.41 1085.59 Q1001.66 1083.07 1002.54 1081.33 Q1003.44 1079.57 1003.44 1077.88 Q1003.44 1075.13 1001.49 1073.39 Q999.573 1071.65 996.471 1071.65 Q994.272 1071.65 991.818 1072.42 Q989.387 1073.18 986.61 1074.73 L986.61 1070.01 Q989.434 1068.88 991.887 1068.3 Q994.341 1067.72 996.378 1067.72 Q1001.75 1067.72 1004.94 1070.4 Q1008.14 1073.09 1008.14 1077.58 Q1008.14 1079.71 1007.33 1081.63 Q1006.54 1083.53 1004.43 1086.12 Q1003.85 1086.79 1000.75 1090.01 Q997.651 1093.2 992.003 1098.97 Z" fill="#000000" fill-rule="nonzero" fill-opacity="1" /><path clip-path="url(#clip630)" d="M1368.39 1084.27 Q1371.75 1084.99 1373.62 1087.26 Q1375.52 1089.52 1375.52 1092.86 Q1375.52 1097.97 1372 1100.77 Q1368.49 1103.57 1362 1103.57 Q1359.83 1103.57 1357.51 1103.13 Q1355.22 1102.72 1352.77 1101.86 L1352.77 1097.35 Q1354.71 1098.48 1357.03 1099.06 Q1359.34 1099.64 1361.87 1099.64 Q1366.26 1099.64 1368.56 1097.9 Q1370.87 1096.17 1370.87 1092.86 Q1370.87 1089.8 1368.72 1088.09 Q1366.59 1086.35 1362.77 1086.35 L1358.74 1086.35 L1358.74 1082.51 L1362.95 1082.51 Q1366.4 1082.51 1368.23 1081.14 Q1370.06 1079.76 1370.06 1077.16 Q1370.06 1074.5 1368.16 1073.09 Q1366.29 1071.65 1362.77 1071.65 Q1360.85 1071.65 1358.65 1072.07 Q1356.45 1072.49 1353.81 1073.37 L1353.81 1069.2 Q1356.47 1068.46 1358.79 1068.09 Q1361.12 1067.72 1363.19 1067.72 Q1368.51 1067.72 1371.61 1070.15 Q1374.71 1072.56 1374.71 1076.68 Q1374.71 1079.55 1373.07 1081.54 Q1371.43 1083.51 1368.39 1084.27 Z" fill="#000000" fill-rule="nonzero" fill-opacity="1" /><path clip-path="url(#clip630)" d="M1733.95 1072.42 L1722.14 1090.87 L1733.95 1090.87 L1733.95 1072.42 M1732.72 1068.34 L1738.6 1068.34 L1738.6 1090.87 L1743.53 1090.87 L1743.53 1094.76 L1738.6 1094.76 L1738.6 1102.9 L1733.95 1102.9 L1733.95 1094.76 L1718.35 1094.76 L1718.35 1090.24 L1732.72 1068.34 Z" fill="#000000" fill-rule="nonzero" fill-opacity="1" /><path clip-path="url(#clip630)" d="M2088.01 1068.34 L2106.37 1068.34 L2106.37 1072.28 L2092.3 1072.28 L2092.3 1080.75 Q2093.32 1080.4 2094.33 1080.24 Q2095.35 1080.06 2096.37 1080.06 Q2102.16 1080.06 2105.54 1083.23 Q2108.92 1086.4 2108.92 1091.82 Q2108.92 1097.39 2105.44 1100.5 Q2101.97 1103.57 2095.65 1103.57 Q2093.48 1103.57 2091.21 1103.2 Q2088.96 1102.83 2086.56 1102.09 L2086.56 1097.39 Q2088.64 1098.53 2090.86 1099.08 Q2093.08 1099.64 2095.56 1099.64 Q2099.57 1099.64 2101.9 1097.53 Q2104.24 1095.43 2104.24 1091.82 Q2104.24 1088.2 2101.9 1086.1 Q2099.57 1083.99 2095.56 1083.99 Q2093.69 1083.99 2091.81 1084.41 Q2089.96 1084.82 2088.01 1085.7 L2088.01 1068.34 Z" fill="#000000" fill-rule="nonzero" fill-opacity="1" /><path clip-path="url(#clip630)" d="M1119.91 1138.2 L1119.91 1148.32 L1131.97 1148.32 L1131.97 1152.87 L1119.91 1152.87 L1119.91 1172.22 Q1119.91 1176.58 1121.09 1177.82 Q1122.29 1179.07 1125.96 1179.07 L1131.97 1179.07 L1131.97 1183.97 L1125.96 1183.97 Q1119.18 1183.97 1116.6 1181.45 Q1114.02 1178.91 1114.02 1172.22 L1114.02 1152.87 L1109.72 1152.87 L1109.72 1148.32 L1114.02 1148.32 L1114.02 1138.2 L1119.91 1138.2 Z" fill="#000000" fill-rule="nonzero" fill-opacity="1" /><path clip-path="url(#clip630)" d="M1139.67 1148.32 L1145.53 1148.32 L1145.53 1183.97 L1139.67 1183.97 L1139.67 1148.32 M1139.67 1134.44 L1145.53 1134.44 L1145.53 1141.86 L1139.67 1141.86 L1139.67 1134.44 Z" fill="#000000" fill-rule="nonzero" fill-opacity="1" /><path clip-path="url(#clip630)" d="M1185.54 1155.16 Q1187.73 1151.22 1190.79 1149.34 Q1193.85 1147.46 1197.98 1147.46 Q1203.55 1147.46 1206.58 1151.38 Q1209.6 1155.26 1209.6 1162.45 L1209.6 1183.97 L1203.71 1183.97 L1203.71 1162.64 Q1203.71 1157.52 1201.9 1155.04 Q1200.08 1152.55 1196.36 1152.55 Q1191.81 1152.55 1189.17 1155.58 Q1186.52 1158.6 1186.52 1163.82 L1186.52 1183.97 L1180.64 1183.97 L1180.64 1162.64 Q1180.64 1157.49 1178.82 1155.04 Q1177.01 1152.55 1173.22 1152.55 Q1168.73 1152.55 1166.09 1155.61 Q1163.45 1158.63 1163.45 1163.82 L1163.45 1183.97 L1157.56 1183.97 L1157.56 1148.32 L1163.45 1148.32 L1163.45 1153.86 Q1165.45 1150.58 1168.26 1149.02 Q1171.06 1147.46 1174.91 1147.46 Q1178.79 1147.46 1181.5 1149.43 Q1184.23 1151.41 1185.54 1155.16 Z" fill="#000000" fill-rule="nonzero" fill-opacity="1" /><path clip-path="url(#clip630)" d="M1251.77 1164.68 L1251.77 1167.54 L1224.85 1167.54 Q1225.23 1173.59 1228.47 1176.77 Q1231.75 1179.93 1237.58 1179.93 Q1240.95 1179.93 1244.1 1179.1 Q1247.29 1178.27 1250.4 1176.62 L1250.4 1182.15 Q1247.25 1183.49 1243.94 1184.19 Q1240.63 1184.89 1237.23 1184.89 Q1228.7 1184.89 1223.7 1179.93 Q1218.74 1174.96 1218.74 1166.49 Q1218.74 1157.74 1223.45 1152.62 Q1228.19 1147.46 1236.21 1147.46 Q1243.4 1147.46 1247.57 1152.11 Q1251.77 1156.72 1251.77 1164.68 M1245.92 1162.96 Q1245.85 1158.15 1243.21 1155.29 Q1240.6 1152.43 1236.27 1152.43 Q1231.37 1152.43 1228.41 1155.19 Q1225.48 1157.96 1225.04 1162.99 L1245.92 1162.96 Z" fill="#000000" fill-rule="nonzero" fill-opacity="1" /><polyline clip-path="url(#clip632)" style="stroke:#000000; stroke-linecap:round; stroke-linejoin:round; stroke-width:2; stroke-opacity:0.1; fill:none" points="208.74,1013.95 2152.76,1013.95 "/>
<polyline clip-path="url(#clip632)" style="stroke:#000000; stroke-linecap:round; stroke-linejoin:round; stroke-width:2; stroke-opacity:0.1; fill:none" points="208.74,795.414 2152.76,795.414 "/>
<polyline clip-path="url(#clip632)" style="stroke:#000000; stroke-linecap:round; stroke-linejoin:round; stroke-width:2; stroke-opacity:0.1; fill:none" points="208.74,576.881 2152.76,576.881 "/>
<polyline clip-path="url(#clip632)" style="stroke:#000000; stroke-linecap:round; stroke-linejoin:round; stroke-width:2; stroke-opacity:0.1; fill:none" points="208.74,358.348 2152.76,358.348 "/>
<polyline clip-path="url(#clip632)" style="stroke:#000000; stroke-linecap:round; stroke-linejoin:round; stroke-width:2; stroke-opacity:0.1; fill:none" points="208.74,139.815 2152.76,139.815 "/>
<polyline clip-path="url(#clip630)" style="stroke:#000000; stroke-linecap:round; stroke-linejoin:round; stroke-width:4; stroke-opacity:1; fill:none" points="208.74,1042.1 208.74,47.2441 "/>
<polyline clip-path="url(#clip630)" style="stroke:#000000; stroke-linecap:round; stroke-linejoin:round; stroke-width:4; stroke-opacity:1; fill:none" points="208.74,1013.95 227.638,1013.95 "/>
<polyline clip-path="url(#clip630)" style="stroke:#000000; stroke-linecap:round; stroke-linejoin:round; stroke-width:4; stroke-opacity:1; fill:none" points="208.74,795.414 227.638,795.414 "/>
<polyline clip-path="url(#clip630)" style="stroke:#000000; stroke-linecap:round; stroke-linejoin:round; stroke-width:4; stroke-opacity:1; fill:none" points="208.74,576.881 227.638,576.881 "/>
<polyline clip-path="url(#clip630)" style="stroke:#000000; stroke-linecap:round; stroke-linejoin:round; stroke-width:4; stroke-opacity:1; fill:none" points="208.74,358.348 227.638,358.348 "/>
<polyline clip-path="url(#clip630)" style="stroke:#000000; stroke-linecap:round; stroke-linejoin:round; stroke-width:4; stroke-opacity:1; fill:none" points="208.74,139.815 227.638,139.815 "/>
<path clip-path="url(#clip630)" d="M118.565 999.746 Q114.953 999.746 113.125 1003.31 Q111.319 1006.85 111.319 1013.98 Q111.319 1021.09 113.125 1024.65 Q114.953 1028.19 118.565 1028.19 Q122.199 1028.19 124.004 1024.65 Q125.833 1021.09 125.833 1013.98 Q125.833 1006.85 124.004 1003.31 Q122.199 999.746 118.565 999.746 M118.565 996.042 Q124.375 996.042 127.43 1000.65 Q130.509 1005.23 130.509 1013.98 Q130.509 1022.71 127.43 1027.32 Q124.375 1031.9 118.565 1031.9 Q112.754 1031.9 109.676 1027.32 Q106.62 1022.71 106.62 1013.98 Q106.62 1005.23 109.676 1000.65 Q112.754 996.042 118.565 996.042 Z" fill="#000000" fill-rule="nonzero" fill-opacity="1" /><path clip-path="url(#clip630)" d="M138.726 1025.35 L143.611 1025.35 L143.611 1031.23 L138.726 1031.23 L138.726 1025.35 Z" fill="#000000" fill-rule="nonzero" fill-opacity="1" /><path clip-path="url(#clip630)" d="M163.796 999.746 Q160.185 999.746 158.356 1003.31 Q156.55 1006.85 156.55 1013.98 Q156.55 1021.09 158.356 1024.65 Q160.185 1028.19 163.796 1028.19 Q167.43 1028.19 169.236 1024.65 Q171.064 1021.09 171.064 1013.98 Q171.064 1006.85 169.236 1003.31 Q167.43 999.746 163.796 999.746 M163.796 996.042 Q169.606 996.042 172.661 1000.65 Q175.74 1005.23 175.74 1013.98 Q175.74 1022.71 172.661 1027.32 Q169.606 1031.9 163.796 1031.9 Q157.986 1031.9 154.907 1027.32 Q151.851 1022.71 151.851 1013.98 Q151.851 1005.23 154.907 1000.65 Q157.986 996.042 163.796 996.042 Z" fill="#000000" fill-rule="nonzero" fill-opacity="1" /><path clip-path="url(#clip630)" d="M119.56 781.213 Q115.949 781.213 114.12 784.777 Q112.315 788.319 112.315 795.449 Q112.315 802.555 114.12 806.12 Q115.949 809.662 119.56 809.662 Q123.194 809.662 125 806.12 Q126.828 802.555 126.828 795.449 Q126.828 788.319 125 784.777 Q123.194 781.213 119.56 781.213 M119.56 777.509 Q125.37 777.509 128.426 782.115 Q131.504 786.699 131.504 795.449 Q131.504 804.175 128.426 808.782 Q125.37 813.365 119.56 813.365 Q113.75 813.365 110.671 808.782 Q107.616 804.175 107.616 795.449 Q107.616 786.699 110.671 782.115 Q113.75 777.509 119.56 777.509 Z" fill="#000000" fill-rule="nonzero" fill-opacity="1" /><path clip-path="url(#clip630)" d="M139.722 806.814 L144.606 806.814 L144.606 812.694 L139.722 812.694 L139.722 806.814 Z" fill="#000000" fill-rule="nonzero" fill-opacity="1" /><path clip-path="url(#clip630)" d="M154.837 778.134 L173.194 778.134 L173.194 782.069 L159.12 782.069 L159.12 790.541 Q160.138 790.194 161.157 790.032 Q162.175 789.847 163.194 789.847 Q168.981 789.847 172.361 793.018 Q175.74 796.189 175.74 801.606 Q175.74 807.185 172.268 810.287 Q168.796 813.365 162.476 813.365 Q160.3 813.365 158.032 812.995 Q155.787 812.625 153.379 811.884 L153.379 807.185 Q155.462 808.319 157.685 808.875 Q159.907 809.43 162.384 809.43 Q166.388 809.43 168.726 807.324 Q171.064 805.217 171.064 801.606 Q171.064 797.995 168.726 795.888 Q166.388 793.782 162.384 793.782 Q160.509 793.782 158.634 794.199 Q156.782 794.615 154.837 795.495 L154.837 778.134 Z" fill="#000000" fill-rule="nonzero" fill-opacity="1" /><path clip-path="url(#clip630)" d="M109.375 590.226 L117.014 590.226 L117.014 563.86 L108.703 565.527 L108.703 561.267 L116.967 559.601 L121.643 559.601 L121.643 590.226 L129.282 590.226 L129.282 594.161 L109.375 594.161 L109.375 590.226 Z" fill="#000000" fill-rule="nonzero" fill-opacity="1" /><path clip-path="url(#clip630)" d="M138.726 588.281 L143.611 588.281 L143.611 594.161 L138.726 594.161 L138.726 588.281 Z" fill="#000000" fill-rule="nonzero" fill-opacity="1" /><path clip-path="url(#clip630)" d="M163.796 562.68 Q160.185 562.68 158.356 566.244 Q156.55 569.786 156.55 576.916 Q156.55 584.022 158.356 587.587 Q160.185 591.128 163.796 591.128 Q167.43 591.128 169.236 587.587 Q171.064 584.022 171.064 576.916 Q171.064 569.786 169.236 566.244 Q167.43 562.68 163.796 562.68 M163.796 558.976 Q169.606 558.976 172.661 563.582 Q175.74 568.166 175.74 576.916 Q175.74 585.642 172.661 590.249 Q169.606 594.832 163.796 594.832 Q157.986 594.832 154.907 590.249 Q151.851 585.642 151.851 576.916 Q151.851 568.166 154.907 563.582 Q157.986 558.976 163.796 558.976 Z" fill="#000000" fill-rule="nonzero" fill-opacity="1" /><path clip-path="url(#clip630)" d="M110.37 371.693 L118.009 371.693 L118.009 345.327 L109.699 346.994 L109.699 342.734 L117.963 341.068 L122.639 341.068 L122.639 371.693 L130.277 371.693 L130.277 375.628 L110.37 375.628 L110.37 371.693 Z" fill="#000000" fill-rule="nonzero" fill-opacity="1" /><path clip-path="url(#clip630)" d="M139.722 369.748 L144.606 369.748 L144.606 375.628 L139.722 375.628 L139.722 369.748 Z" fill="#000000" fill-rule="nonzero" fill-opacity="1" /><path clip-path="url(#clip630)" d="M154.837 341.068 L173.194 341.068 L173.194 345.003 L159.12 345.003 L159.12 353.475 Q160.138 353.128 161.157 352.966 Q162.175 352.781 163.194 352.781 Q168.981 352.781 172.361 355.952 Q175.74 359.123 175.74 364.54 Q175.74 370.118 172.268 373.22 Q168.796 376.299 162.476 376.299 Q160.3 376.299 158.032 375.929 Q155.787 375.558 153.379 374.818 L153.379 370.118 Q155.462 371.253 157.685 371.808 Q159.907 372.364 162.384 372.364 Q166.388 372.364 168.726 370.257 Q171.064 368.151 171.064 364.54 Q171.064 360.929 168.726 358.822 Q166.388 356.716 162.384 356.716 Q160.509 356.716 158.634 357.132 Q156.782 357.549 154.837 358.429 L154.837 341.068 Z" fill="#000000" fill-rule="nonzero" fill-opacity="1" /><path clip-path="url(#clip630)" d="M112.592 153.159 L128.912 153.159 L128.912 157.095 L106.967 157.095 L106.967 153.159 Q109.629 150.405 114.213 145.775 Q118.819 141.122 120 139.78 Q122.245 137.257 123.125 135.521 Q124.027 133.761 124.027 132.072 Q124.027 129.317 122.083 127.581 Q120.162 125.845 117.06 125.845 Q114.861 125.845 112.407 126.609 Q109.977 127.372 107.199 128.923 L107.199 124.201 Q110.023 123.067 112.477 122.488 Q114.93 121.91 116.967 121.91 Q122.338 121.91 125.532 124.595 Q128.727 127.28 128.727 131.771 Q128.727 133.9 127.916 135.822 Q127.129 137.72 125.023 140.312 Q124.444 140.984 121.342 144.201 Q118.24 147.396 112.592 153.159 Z" fill="#000000" fill-rule="nonzero" fill-opacity="1" /><path clip-path="url(#clip630)" d="M138.726 151.215 L143.611 151.215 L143.611 157.095 L138.726 157.095 L138.726 151.215 Z" fill="#000000" fill-rule="nonzero" fill-opacity="1" /><path clip-path="url(#clip630)" d="M163.796 125.613 Q160.185 125.613 158.356 129.178 Q156.55 132.72 156.55 139.849 Q156.55 146.956 158.356 150.521 Q160.185 154.062 163.796 154.062 Q167.43 154.062 169.236 150.521 Q171.064 146.956 171.064 139.849 Q171.064 132.72 169.236 129.178 Q167.43 125.613 163.796 125.613 M163.796 121.91 Q169.606 121.91 172.661 126.516 Q175.74 131.099 175.74 139.849 Q175.74 148.576 172.661 153.183 Q169.606 157.766 163.796 157.766 Q157.986 157.766 154.907 153.183 Q151.851 148.576 151.851 139.849 Q151.851 131.099 154.907 126.516 Q157.986 121.91 163.796 121.91 Z" fill="#000000" fill-rule="nonzero" fill-opacity="1" /><path clip-path="url(#clip630)" d="M41.4447 687.25 Q41.4447 694.347 43.0679 697.085 Q44.6912 699.822 48.6061 699.822 Q51.7253 699.822 53.5714 697.785 Q55.3856 695.716 55.3856 692.183 Q55.3856 687.313 51.9481 684.385 Q48.4788 681.425 42.7497 681.425 L41.4447 681.425 L41.4447 687.25 M39.0257 675.569 L59.3642 675.569 L59.3642 681.425 L53.9533 681.425 Q57.1998 683.43 58.7594 686.422 Q60.2872 689.414 60.2872 693.743 Q60.2872 699.217 57.2316 702.464 Q54.1443 705.678 48.9881 705.678 Q42.9725 705.678 39.9169 701.668 Q36.8614 697.626 36.8614 689.637 L36.8614 681.425 L36.2885 681.425 Q32.2462 681.425 30.0501 684.099 Q27.8221 686.74 27.8221 691.547 Q27.8221 694.602 28.5541 697.498 Q29.2862 700.395 30.7503 703.068 L25.3395 703.068 Q24.0981 699.854 23.4934 696.83 Q22.8568 693.806 22.8568 690.942 Q22.8568 683.207 26.8672 679.388 Q30.8776 675.569 39.0257 675.569 Z" fill="#000000" fill-rule="nonzero" fill-opacity="1" /><path clip-path="url(#clip630)" d="M30.5593 635.751 Q26.6126 633.555 24.7347 630.499 Q22.8568 627.444 22.8568 623.306 Q22.8568 617.736 26.7717 614.712 Q30.6548 611.689 37.8481 611.689 L59.3642 611.689 L59.3642 617.577 L38.039 617.577 Q32.9146 617.577 30.432 619.391 Q27.9494 621.205 27.9494 624.929 Q27.9494 629.481 30.9731 632.123 Q33.9968 634.764 39.2167 634.764 L59.3642 634.764 L59.3642 640.653 L38.039 640.653 Q32.8828 640.653 30.432 642.467 Q27.9494 644.281 27.9494 648.069 Q27.9494 652.557 31.0049 655.198 Q34.0286 657.84 39.2167 657.84 L59.3642 657.84 L59.3642 663.728 L23.7162 663.728 L23.7162 657.84 L29.2544 657.84 Q25.976 655.835 24.4164 653.034 Q22.8568 650.233 22.8568 646.382 Q22.8568 642.499 24.8302 639.793 Q26.8036 637.056 30.5593 635.751 Z" fill="#000000" fill-rule="nonzero" fill-opacity="1" /><path clip-path="url(#clip630)" d="M54.017 594.342 L72.9231 594.342 L72.9231 600.23 L23.7162 600.23 L23.7162 594.342 L29.1271 594.342 Q25.9442 592.496 24.4164 589.695 Q22.8568 586.863 22.8568 582.948 Q22.8568 576.455 28.0131 572.412 Q33.1693 568.338 41.572 568.338 Q49.9747 568.338 55.131 572.412 Q60.2872 576.455 60.2872 582.948 Q60.2872 586.863 58.7594 589.695 Q57.1998 592.496 54.017 594.342 M41.572 574.418 Q35.1108 574.418 31.4505 577.091 Q27.7584 579.733 27.7584 584.38 Q27.7584 589.027 31.4505 591.7 Q35.1108 594.342 41.572 594.342 Q48.0332 594.342 51.7253 591.7 Q55.3856 589.027 55.3856 584.38 Q55.3856 579.733 51.7253 577.091 Q48.0332 574.418 41.572 574.418 Z" fill="#000000" fill-rule="nonzero" fill-opacity="1" /><path clip-path="url(#clip630)" d="M9.83896 558.631 L9.83896 552.774 L59.3642 552.774 L59.3642 558.631 L9.83896 558.631 Z" fill="#000000" fill-rule="nonzero" fill-opacity="1" /><path clip-path="url(#clip630)" d="M23.7162 540.52 L23.7162 534.664 L59.3642 534.664 L59.3642 540.52 L23.7162 540.52 M9.83896 540.52 L9.83896 534.664 L17.255 534.664 L17.255 540.52 L9.83896 540.52 Z" fill="#000000" fill-rule="nonzero" fill-opacity="1" /><path clip-path="url(#clip630)" d="M13.5947 516.617 L23.7162 516.617 L23.7162 504.554 L28.2677 504.554 L28.2677 516.617 L47.6194 516.617 Q51.9799 516.617 53.2213 515.439 Q54.4626 514.23 54.4626 510.57 L54.4626 504.554 L59.3642 504.554 L59.3642 510.57 Q59.3642 517.349 56.8497 519.927 Q54.3034 522.505 47.6194 522.505 L28.2677 522.505 L28.2677 526.802 L23.7162 526.802 L23.7162 522.505 L13.5947 522.505 L13.5947 516.617 Z" fill="#000000" fill-rule="nonzero" fill-opacity="1" /><path clip-path="url(#clip630)" d="M45.2959 497.456 L23.7162 497.456 L23.7162 491.6 L45.0731 491.6 Q50.1339 491.6 52.6802 489.626 Q55.1946 487.653 55.1946 483.706 Q55.1946 478.964 52.1709 476.227 Q49.1472 473.457 43.9273 473.457 L23.7162 473.457 L23.7162 467.601 L59.3642 467.601 L59.3642 473.457 L53.8896 473.457 Q57.1362 475.59 58.7276 478.423 Q60.2872 481.224 60.2872 484.948 Q60.2872 491.09 56.4678 494.273 Q52.6483 497.456 45.2959 497.456 M22.8568 482.72 L22.8568 482.72 Z" fill="#000000" fill-rule="nonzero" fill-opacity="1" /><path clip-path="url(#clip630)" d="M29.1271 432.08 L9.83896 432.08 L9.83896 426.224 L59.3642 426.224 L59.3642 432.08 L54.017 432.08 Q57.1998 433.926 58.7594 436.759 Q60.2872 439.56 60.2872 443.507 Q60.2872 449.968 55.131 454.042 Q49.9747 458.084 41.572 458.084 Q33.1693 458.084 28.0131 454.042 Q22.8568 449.968 22.8568 443.507 Q22.8568 439.56 24.4164 436.759 Q25.9442 433.926 29.1271 432.08 M41.572 452.037 Q48.0332 452.037 51.7253 449.395 Q55.3856 446.721 55.3856 442.075 Q55.3856 437.428 51.7253 434.754 Q48.0332 432.08 41.572 432.08 Q35.1108 432.08 31.4505 434.754 Q27.7584 437.428 27.7584 442.075 Q27.7584 446.721 31.4505 449.395 Q35.1108 452.037 41.572 452.037 Z" fill="#000000" fill-rule="nonzero" fill-opacity="1" /><path clip-path="url(#clip630)" d="M40.0761 383.669 L42.9406 383.669 L42.9406 410.596 Q48.9881 410.214 52.1709 406.968 Q55.3219 403.689 55.3219 397.865 Q55.3219 394.491 54.4944 391.34 Q53.6669 388.157 52.0118 385.038 L57.5499 385.038 Q58.8867 388.189 59.587 391.499 Q60.2872 394.809 60.2872 398.215 Q60.2872 406.745 55.3219 411.742 Q50.3567 416.707 41.8903 416.707 Q33.1374 416.707 28.0131 411.997 Q22.8568 407.254 22.8568 399.233 Q22.8568 392.04 27.5038 387.871 Q32.1189 383.669 40.0761 383.669 M38.3573 389.526 Q33.5512 389.589 30.6866 392.231 Q27.8221 394.841 27.8221 399.17 Q27.8221 404.071 30.5912 407.031 Q33.3602 409.96 38.3892 410.405 L38.3573 389.526 Z" fill="#000000" fill-rule="nonzero" fill-opacity="1" /><polyline clip-path="url(#clip632)" style="stroke:#009af9; stroke-linecap:round; stroke-linejoin:round; stroke-width:12; stroke-opacity:1; fill:none" points="263.759,1013.95 267.435,1013.9 271.11,1013.62 274.785,1013.28 278.461,1012.89 282.136,1012.54 285.811,1012.32 289.487,1012.27 293.162,1012.4 296.837,1012.67 300.513,1013 304.188,1013.32 307.863,1013.58 311.538,1013.75 315.214,1013.86 318.889,1013.91 322.564,1013.93 326.24,1013.94 329.915,1013.95 333.59,1013.95 337.266,1013.95 340.941,1013.95 344.616,1013.95 348.291,1013.95 351.967,1013.95 355.642,1013.95 359.317,1013.95 362.993,1013.95 366.668,1013.95 370.343,1013.95 374.019,1013.95 377.694,1013.95 381.369,1013.95 385.045,1013.95 388.72,1013.95 392.395,1013.95 396.07,1013.95 399.746,1013.95 403.421,1013.95 407.096,1013.95 410.772,1013.95 414.447,1013.95 418.122,1013.95 421.798,1013.95 425.473,1013.95 429.148,1013.95 432.823,1013.95 436.499,1013.95 440.174,1013.95 443.849,1013.95 447.525,1013.95 451.2,1013.95 454.875,1013.95 458.551,1013.95 462.226,1013.95 465.901,1013.95 469.577,1013.95 473.252,1013.95 476.927,1013.95 480.602,1013.95 484.278,1013.95 487.953,1013.95 491.628,1013.95 495.304,1013.95 498.979,1013.95 502.654,1013.95 506.33,1013.95 510.005,1013.95 513.68,1013.95 517.356,1013.95 521.031,1013.95 524.706,1013.95 528.381,1013.95 532.057,1013.95 535.732,1013.95 539.407,1013.95 543.083,1013.95 546.758,1013.95 550.433,1013.95 554.109,1013.95 557.784,1013.95 561.459,1013.95 565.134,1013.95 568.81,1013.95 572.485,1013.95 576.16,1013.95 579.836,1013.95 583.511,1013.95 587.186,1013.95 590.862,1013.95 594.537,1013.95 598.212,1013.95 601.888,1013.95 605.563,1013.95 609.238,1013.95 612.913,1013.95 616.589,1013.95 620.264,1013.95 623.939,1013.95 627.615,1013.95 631.29,1013.95 634.965,1013.95 638.641,1013.95 642.316,1013.95 645.991,1013.95 649.666,1013.95 653.342,1013.95 657.017,1013.95 660.692,1013.95 664.368,1013.95 668.043,1013.95 671.718,1013.95 675.394,1013.95 679.069,1013.95 682.744,1013.95 686.42,1013.95 690.095,1013.95 693.77,1013.95 697.445,1013.95 701.121,1013.95 704.796,1013.95 708.471,1013.95 712.147,1013.95 715.822,1013.95 719.497,1013.95 723.173,1013.94 726.848,1013.94 730.523,1013.94 734.198,1013.94 737.874,1013.94 741.549,1013.94 745.224,1013.94 748.9,1013.94 752.575,1013.94 756.25,1013.94 759.926,1013.93 763.601,1013.93 767.276,1013.93 770.952,1013.92 774.627,1013.92 778.302,1013.91 781.977,1013.9 785.653,1013.89 789.328,1013.88 793.003,1013.87 796.679,1013.85 800.354,1013.83 804.029,1013.81 807.705,1013.78 811.38,1013.74 815.055,1013.7 818.731,1013.64 822.406,1013.58 826.081,1013.5 829.756,1013.4 833.432,1013.28 837.107,1013.14 840.782,1012.97 844.458,1012.75 848.133,1012.5 851.808,1012.19 855.484,1011.81 859.159,1011.35 862.834,1010.79 866.509,1010.12 870.185,1009.3 873.86,1008.31 877.535,1007.11 881.211,1005.67 884.886,1003.92 888.561,1001.81 892.237,999.28 895.912,996.239 899.587,992.596 903.263,988.245 906.938,983.063 910.613,976.916 914.288,969.656 917.964,961.122 921.639,951.149 925.314,939.567 928.99,926.215 932.665,910.948 936.34,893.646 940.016,874.229 943.691,852.667 947.366,828.994 951.041,803.305 954.717,775.767 958.392,746.609 962.067,716.115 965.743,684.606 969.418,652.428 973.093,619.929 976.769,587.444 980.444,555.285 984.119,523.724 987.795,492.991 991.47,463.272 995.145,434.71 998.82,407.405 1002.5,381.424 1006.17,356.8 1009.85,333.543 1013.52,311.641 1017.2,291.069 1020.87,271.789 1024.55,253.754 1028.22,236.914 1031.9,221.216 1035.57,206.605 1039.25,193.026 1042.92,180.425 1046.6,168.753 1050.27,157.958 1053.95,147.997 1057.63,138.824 1061.3,130.4 1064.98,122.689 1068.65,115.655 1072.33,109.268 1076,103.499 1079.68,98.323 1083.35,93.7176 1087.03,89.6624 1090.7,86.1398 1094.38,83.1346 1098.05,80.6339 1101.73,78.627 1105.4,77.1055 1109.08,76.0631 1112.75,75.4954 1116.43,75.4005 1120.11,75.7781 1123.78,76.6301 1127.46,77.9607 1131.13,79.7757 1134.81,82.0834 1138.48,84.894 1142.16,88.2202 1145.83,92.0766 1149.51,96.4802 1153.18,101.451 1156.86,107.01 1160.53,113.182 1164.21,119.994 1167.88,127.477 1171.56,135.661 1175.24,144.582 1178.91,154.279 1182.59,164.79 1186.26,176.159 1189.94,188.429 1193.61,201.648 1197.29,215.861 1200.96,231.116 1204.64,247.459 1208.31,264.934 1211.99,283.582 1215.66,303.435 1219.34,324.52 1223.01,346.849 1226.69,370.422 1230.36,395.219 1234.04,421.199 1237.72,448.294 1241.39,476.408 1245.07,505.412 1248.74,535.146 1252.42,565.416 1256.09,596 1259.77,626.65 1263.44,657.099 1267.12,687.075 1270.79,716.304 1274.47,744.527 1278.14,771.512 1281.82,797.056 1285.49,821.001 1289.17,843.233 1292.84,863.683 1296.52,882.329 1300.2,899.188 1303.87,914.313 1307.55,927.783 1311.22,939.7 1314.9,950.178 1318.57,959.341 1322.25,967.312 1325.92,974.217 1329.6,980.173 1333.27,985.292 1336.95,989.677 1340.62,993.424 1344.3,996.616 1347.97,999.33 1351.65,1001.63 1355.33,1003.58 1359,1005.23 1362.68,1006.62 1366.35,1007.8 1370.03,1008.79 1373.7,1009.62 1377.38,1010.32 1381.05,1010.91 1384.73,1011.4 1388.4,1011.82 1392.08,1012.16 1395.75,1012.45 1399.43,1012.7 1403.1,1012.9 1406.78,1013.07 1410.45,1013.22 1414.13,1013.34 1417.81,1013.44 1421.48,1013.52 1425.16,1013.59 1428.83,1013.65 1432.51,1013.7 1436.18,1013.74 1439.86,1013.77 1443.53,1013.8 1447.21,1013.82 1450.88,1013.84 1454.56,1013.86 1458.23,1013.88 1461.91,1013.89 1465.58,1013.9 1469.26,1013.9 1472.93,1013.91 1476.61,1013.92 1480.29,1013.92 1483.96,1013.93 1487.64,1013.93 1491.31,1013.93 1494.99,1013.93 1498.66,1013.94 1502.34,1013.94 1506.01,1013.94 1509.69,1013.94 1513.36,1013.94 1517.04,1013.94 1520.71,1013.94 1524.39,1013.94 1528.06,1013.94 1531.74,1013.94 1535.41,1013.95 1539.09,1013.95 1542.77,1013.95 1546.44,1013.95 1550.12,1013.95 1553.79,1013.95 1557.47,1013.95 1561.14,1013.95 1564.82,1013.95 1568.49,1013.95 1572.17,1013.95 1575.84,1013.95 1579.52,1013.95 1583.19,1013.95 1586.87,1013.95 1590.54,1013.95 1594.22,1013.95 1597.9,1013.95 1601.57,1013.95 1605.25,1013.95 1608.92,1013.95 1612.6,1013.95 1616.27,1013.95 1619.95,1013.95 1623.62,1013.95 1627.3,1013.95 1630.97,1013.95 1634.65,1013.95 1638.32,1013.95 1642,1013.95 1645.67,1013.95 1649.35,1013.95 1653.02,1013.95 1656.7,1013.95 1660.38,1013.95 1664.05,1013.95 1667.73,1013.95 1671.4,1013.95 1675.08,1013.95 1678.75,1013.95 1682.43,1013.95 1686.1,1013.95 1689.78,1013.95 1693.45,1013.95 1697.13,1013.95 1700.8,1013.95 1704.48,1013.95 1708.15,1013.95 1711.83,1013.95 1715.5,1013.95 1719.18,1013.95 1722.86,1013.95 1726.53,1013.95 1730.21,1013.95 1733.88,1013.95 1737.56,1013.95 1741.23,1013.95 1744.91,1013.95 1748.58,1013.95 1752.26,1013.95 1755.93,1013.95 1759.61,1013.95 1763.28,1013.95 1766.96,1013.95 1770.63,1013.95 1774.31,1013.95 1777.99,1013.95 1781.66,1013.95 1785.34,1013.95 1789.01,1013.95 1792.69,1013.95 1796.36,1013.95 1800.04,1013.95 1803.71,1013.95 1807.39,1013.95 1811.06,1013.95 1814.74,1013.95 1818.41,1013.95 1822.09,1013.95 1825.76,1013.95 1829.44,1013.95 1833.11,1013.95 1836.79,1013.95 1840.47,1013.95 1844.14,1013.95 1847.82,1013.95 1851.49,1013.95 1855.17,1013.95 1858.84,1013.95 1862.52,1013.95 1866.19,1013.95 1869.87,1013.95 1873.54,1013.95 1877.22,1013.95 1880.89,1013.95 1884.57,1013.95 1888.24,1013.95 1891.92,1013.95 1895.59,1013.95 1899.27,1013.95 1902.95,1013.95 1906.62,1013.95 1910.3,1013.95 1913.97,1013.95 1917.65,1013.95 1921.32,1013.95 1925,1013.95 1928.67,1013.95 1932.35,1013.95 1936.02,1013.95 1939.7,1013.95 1943.37,1013.95 1947.05,1013.95 1950.72,1013.95 1954.4,1013.95 1958.08,1013.95 1961.75,1013.95 1965.43,1013.95 1969.1,1013.95 1972.78,1013.95 1976.45,1013.95 1980.13,1013.95 1983.8,1013.95 1987.48,1013.95 1991.15,1013.95 1994.83,1013.95 1998.5,1013.95 2002.18,1013.95 2005.85,1013.95 2009.53,1013.95 2013.2,1013.95 2016.88,1013.95 2020.56,1013.95 2024.23,1013.95 2027.91,1013.95 2031.58,1013.94 2035.26,1013.93 2038.93,1013.91 2042.61,1013.86 2046.28,1013.76 2049.96,1013.6 2053.63,1013.34 2057.31,1013.01 2060.98,1012.63 2064.66,1012.28 2068.33,1012.05 2072.01,1011.99 2075.68,1012.13 2079.36,1012.43 2083.04,1012.83 2086.71,1013.26 2090.39,1013.62 2094.06,1013.9 2097.74,1013.95 "/>
</svg>
