<?xml version="1.0" encoding="utf-8"?>
<svg xmlns="http://www.w3.org/2000/svg" xmlns:xlink="http://www.w3.org/1999/xlink" width="550" height="300" viewBox="0 0 2200 1200">
<defs>
  <clipPath id="clip570">
    <rect x="0" y="0" width="2200" height="1200"/>
  </clipPath>
</defs>
<path clip-path="url(#clip570)" d="M0 1200 L2200 1200 L2200 0 L0 0  Z" fill="#ffffff" fill-rule="evenodd" fill-opacity="1"/>
<defs>
  <clipPath id="clip571">
    <rect x="440" y="0" width="1541" height="1200"/>
  </clipPath>
</defs>
<path clip-path="url(#clip570)" d="M163.509 1042.1 L2152.76 1042.1 L2152.76 47.2441 L163.509 47.2441  Z" fill="#ffffff" fill-rule="evenodd" fill-opacity="1"/>
<defs>
  <clipPath id="clip572">
    <rect x="163" y="47" width="1990" height="996"/>
  </clipPath>
</defs>
<polyline clip-path="url(#clip572)" style="stroke:#000000; stroke-linecap:round; stroke-linejoin:round; stroke-width:2; stroke-opacity:0.1; fill:none" points="219.808,1042.1 219.808,47.2441 "/>
<polyline clip-path="url(#clip572)" style="stroke:#000000; stroke-linecap:round; stroke-linejoin:round; stroke-width:2; stroke-opacity:0.1; fill:none" points="595.138,1042.1 595.138,47.2441 "/>
<polyline clip-path="url(#clip572)" style="stroke:#000000; stroke-linecap:round; stroke-linejoin:round; stroke-width:2; stroke-opacity:0.1; fill:none" points="970.468,1042.1 970.468,47.2441 "/>
<polyline clip-path="url(#clip572)" style="stroke:#000000; stroke-linecap:round; stroke-linejoin:round; stroke-width:2; stroke-opacity:0.1; fill:none" points="1345.8,1042.1 1345.8,47.2441 "/>
<polyline clip-path="url(#clip572)" style="stroke:#000000; stroke-linecap:round; stroke-linejoin:round; stroke-width:2; stroke-opacity:0.1; fill:none" points="1721.13,1042.1 1721.13,47.2441 "/>
<polyline clip-path="url(#clip572)" style="stroke:#000000; stroke-linecap:round; stroke-linejoin:round; stroke-width:2; stroke-opacity:0.1; fill:none" points="2096.46,1042.1 2096.46,47.2441 "/>
<polyline clip-path="url(#clip570)" style="stroke:#000000; stroke-linecap:round; stroke-linejoin:round; stroke-width:4; stroke-opacity:1; fill:none" points="163.509,1042.1 2152.76,1042.1 "/>
<polyline clip-path="url(#clip570)" style="stroke:#000000; stroke-linecap:round; stroke-linejoin:round; stroke-width:4; stroke-opacity:1; fill:none" points="219.808,1042.1 219.808,1023.21 "/>
<polyline clip-path="url(#clip570)" style="stroke:#000000; stroke-linecap:round; stroke-linejoin:round; stroke-width:4; stroke-opacity:1; fill:none" points="595.138,1042.1 595.138,1023.21 "/>
<polyline clip-path="url(#clip570)" style="stroke:#000000; stroke-linecap:round; stroke-linejoin:round; stroke-width:4; stroke-opacity:1; fill:none" points="970.468,1042.1 970.468,1023.21 "/>
<polyline clip-path="url(#clip570)" style="stroke:#000000; stroke-linecap:round; stroke-linejoin:round; stroke-width:4; stroke-opacity:1; fill:none" points="1345.8,1042.1 1345.8,1023.21 "/>
<polyline clip-path="url(#clip570)" style="stroke:#000000; stroke-linecap:round; stroke-linejoin:round; stroke-width:4; stroke-opacity:1; fill:none" points="1721.13,1042.1 1721.13,1023.21 "/>
<polyline clip-path="url(#clip570)" style="stroke:#000000; stroke-linecap:round; stroke-linejoin:round; stroke-width:4; stroke-opacity:1; fill:none" points="2096.46,1042.1 2096.46,1023.21 "/>
<path clip-path="url(#clip570)" d="M219.808 1071.42 Q216.197 1071.42 214.369 1074.99 Q212.563 1078.53 212.563 1085.66 Q212.563 1092.76 214.369 1096.33 Q216.197 1099.87 219.808 1099.87 Q223.443 1099.87 225.248 1096.33 Q227.077 1092.76 227.077 1085.66 Q227.077 1078.53 225.248 1074.99 Q223.443 1071.42 219.808 1071.42 M219.808 1067.72 Q225.619 1067.72 228.674 1072.32 Q231.753 1076.91 231.753 1085.66 Q231.753 1094.39 228.674 1098.99 Q225.619 1103.57 219.808 1103.57 Q213.998 1103.57 210.92 1098.99 Q207.864 1094.39 207.864 1085.66 Q207.864 1076.91 210.92 1072.32 Q213.998 1067.72 219.808 1067.72 Z" fill="#000000" fill-rule="nonzero" fill-opacity="1" /><path clip-path="url(#clip570)" d="M585.52 1098.97 L593.159 1098.97 L593.159 1072.6 L584.849 1074.27 L584.849 1070.01 L593.113 1068.34 L597.788 1068.34 L597.788 1098.97 L605.427 1098.97 L605.427 1102.9 L585.52 1102.9 L585.52 1098.97 Z" fill="#000000" fill-rule="nonzero" fill-opacity="1" /><path clip-path="url(#clip570)" d="M965.12 1098.97 L981.44 1098.97 L981.44 1102.9 L959.495 1102.9 L959.495 1098.97 Q962.157 1096.21 966.741 1091.58 Q971.347 1086.93 972.528 1085.59 Q974.773 1083.07 975.653 1081.33 Q976.556 1079.57 976.556 1077.88 Q976.556 1075.13 974.611 1073.39 Q972.69 1071.65 969.588 1071.65 Q967.389 1071.65 964.935 1072.42 Q962.505 1073.18 959.727 1074.73 L959.727 1070.01 Q962.551 1068.88 965.005 1068.3 Q967.458 1067.72 969.495 1067.72 Q974.866 1067.72 978.06 1070.4 Q981.255 1073.09 981.255 1077.58 Q981.255 1079.71 980.444 1081.63 Q979.657 1083.53 977.551 1086.12 Q976.972 1086.79 973.87 1090.01 Q970.769 1093.2 965.12 1098.97 Z" fill="#000000" fill-rule="nonzero" fill-opacity="1" /><path clip-path="url(#clip570)" d="M1350.04 1084.27 Q1353.4 1084.99 1355.28 1087.26 Q1357.17 1089.52 1357.17 1092.86 Q1357.17 1097.97 1353.66 1100.77 Q1350.14 1103.57 1343.66 1103.57 Q1341.48 1103.57 1339.17 1103.13 Q1336.87 1102.72 1334.42 1101.86 L1334.42 1097.35 Q1336.36 1098.48 1338.68 1099.06 Q1340.99 1099.64 1343.52 1099.64 Q1347.92 1099.64 1350.21 1097.9 Q1352.52 1096.17 1352.52 1092.86 Q1352.52 1089.8 1350.37 1088.09 Q1348.24 1086.35 1344.42 1086.35 L1340.39 1086.35 L1340.39 1082.51 L1344.61 1082.51 Q1348.05 1082.51 1349.88 1081.14 Q1351.71 1079.76 1351.71 1077.16 Q1351.71 1074.5 1349.81 1073.09 Q1347.94 1071.65 1344.42 1071.65 Q1342.5 1071.65 1340.3 1072.07 Q1338.1 1072.49 1335.46 1073.37 L1335.46 1069.2 Q1338.12 1068.46 1340.44 1068.09 Q1342.78 1067.72 1344.84 1067.72 Q1350.16 1067.72 1353.26 1070.15 Q1356.36 1072.56 1356.36 1076.68 Q1356.36 1079.55 1354.72 1081.54 Q1353.08 1083.51 1350.04 1084.27 Z" fill="#000000" fill-rule="nonzero" fill-opacity="1" /><path clip-path="url(#clip570)" d="M1724.14 1072.42 L1712.33 1090.87 L1724.14 1090.87 L1724.14 1072.42 M1722.91 1068.34 L1728.79 1068.34 L1728.79 1090.87 L1733.72 1090.87 L1733.72 1094.76 L1728.79 1094.76 L1728.79 1102.9 L1724.14 1102.9 L1724.14 1094.76 L1708.53 1094.76 L1708.53 1090.24 L1722.91 1068.34 Z" fill="#000000" fill-rule="nonzero" fill-opacity="1" /><path clip-path="url(#clip570)" d="M2086.73 1068.34 L2105.09 1068.34 L2105.09 1072.28 L2091.02 1072.28 L2091.02 1080.75 Q2092.04 1080.4 2093.05 1080.24 Q2094.07 1080.06 2095.09 1080.06 Q2100.88 1080.06 2104.26 1083.23 Q2107.64 1086.4 2107.64 1091.82 Q2107.64 1097.39 2104.16 1100.5 Q2100.69 1103.57 2094.37 1103.57 Q2092.2 1103.57 2089.93 1103.2 Q2087.68 1102.83 2085.28 1102.09 L2085.28 1097.39 Q2087.36 1098.53 2089.58 1099.08 Q2091.8 1099.64 2094.28 1099.64 Q2098.29 1099.64 2100.62 1097.53 Q2102.96 1095.43 2102.96 1091.82 Q2102.96 1088.2 2100.62 1086.1 Q2098.29 1083.99 2094.28 1083.99 Q2092.41 1083.99 2090.53 1084.41 Q2088.68 1084.82 2086.73 1085.7 L2086.73 1068.34 Z" fill="#000000" fill-rule="nonzero" fill-opacity="1" /><path clip-path="url(#clip570)" d="M1097.29 1138.2 L1097.29 1148.32 L1109.36 1148.32 L1109.36 1152.87 L1097.29 1152.87 L1097.29 1172.22 Q1097.29 1176.58 1098.47 1177.82 Q1099.68 1179.07 1103.34 1179.07 L1109.36 1179.07 L1109.36 1183.97 L1103.34 1183.97 Q1096.56 1183.97 1093.98 1181.45 Q1091.4 1178.91 1091.4 1172.22 L1091.4 1152.87 L1087.11 1152.87 L1087.11 1148.32 L1091.4 1148.32 L1091.4 1138.2 L1097.29 1138.2 Z" fill="#000000" fill-rule="nonzero" fill-opacity="1" /><path clip-path="url(#clip570)" d="M1117.06 1148.32 L1122.91 1148.32 L1122.91 1183.97 L1117.06 1183.97 L1117.06 1148.32 M1117.06 1134.44 L1122.91 1134.44 L1122.91 1141.86 L1117.06 1141.86 L1117.06 1134.44 Z" fill="#000000" fill-rule="nonzero" fill-opacity="1" /><path clip-path="url(#clip570)" d="M1162.92 1155.16 Q1165.12 1151.22 1168.17 1149.34 Q1171.23 1147.46 1175.37 1147.46 Q1180.94 1147.46 1183.96 1151.38 Q1186.98 1155.26 1186.98 1162.45 L1186.98 1183.97 L1181.1 1183.97 L1181.1 1162.64 Q1181.1 1157.52 1179.28 1155.04 Q1177.47 1152.55 1173.74 1152.55 Q1169.19 1152.55 1166.55 1155.58 Q1163.91 1158.6 1163.91 1163.82 L1163.91 1183.97 L1158.02 1183.97 L1158.02 1162.64 Q1158.02 1157.49 1156.21 1155.04 Q1154.39 1152.55 1150.6 1152.55 Q1146.12 1152.55 1143.48 1155.61 Q1140.83 1158.63 1140.83 1163.82 L1140.83 1183.97 L1134.95 1183.97 L1134.95 1148.32 L1140.83 1148.32 L1140.83 1153.86 Q1142.84 1150.58 1145.64 1149.02 Q1148.44 1147.46 1152.29 1147.46 Q1156.17 1147.46 1158.88 1149.43 Q1161.62 1151.41 1162.92 1155.16 Z" fill="#000000" fill-rule="nonzero" fill-opacity="1" /><path clip-path="url(#clip570)" d="M1229.16 1164.68 L1229.16 1167.54 L1202.23 1167.54 Q1202.61 1173.59 1205.86 1176.77 Q1209.14 1179.93 1214.96 1179.93 Q1218.34 1179.93 1221.49 1179.1 Q1224.67 1178.27 1227.79 1176.62 L1227.79 1182.15 Q1224.64 1183.49 1221.33 1184.19 Q1218.02 1184.89 1214.61 1184.89 Q1206.08 1184.89 1201.09 1179.93 Q1196.12 1174.96 1196.12 1166.49 Q1196.12 1157.74 1200.83 1152.62 Q1205.57 1147.46 1213.59 1147.46 Q1220.79 1147.46 1224.96 1152.11 Q1229.16 1156.72 1229.16 1164.68 M1223.3 1162.96 Q1223.24 1158.15 1220.6 1155.29 Q1217.99 1152.43 1213.66 1152.43 Q1208.76 1152.43 1205.8 1155.19 Q1202.87 1157.96 1202.42 1162.99 L1223.3 1162.96 Z" fill="#000000" fill-rule="nonzero" fill-opacity="1" /><polyline clip-path="url(#clip572)" style="stroke:#000000; stroke-linecap:round; stroke-linejoin:round; stroke-width:2; stroke-opacity:0.1; fill:none" points="163.509,1013.95 2152.76,1013.95 "/>
<polyline clip-path="url(#clip572)" style="stroke:#000000; stroke-linecap:round; stroke-linejoin:round; stroke-width:2; stroke-opacity:0.1; fill:none" points="163.509,767.766 2152.76,767.766 "/>
<polyline clip-path="url(#clip572)" style="stroke:#000000; stroke-linecap:round; stroke-linejoin:round; stroke-width:2; stroke-opacity:0.1; fill:none" points="163.509,521.584 2152.76,521.584 "/>
<polyline clip-path="url(#clip572)" style="stroke:#000000; stroke-linecap:round; stroke-linejoin:round; stroke-width:2; stroke-opacity:0.1; fill:none" points="163.509,275.403 2152.76,275.403 "/>
<polyline clip-path="url(#clip570)" style="stroke:#000000; stroke-linecap:round; stroke-linejoin:round; stroke-width:4; stroke-opacity:1; fill:none" points="163.509,1042.1 163.509,47.2441 "/>
<polyline clip-path="url(#clip570)" style="stroke:#000000; stroke-linecap:round; stroke-linejoin:round; stroke-width:4; stroke-opacity:1; fill:none" points="163.509,1013.95 182.407,1013.95 "/>
<polyline clip-path="url(#clip570)" style="stroke:#000000; stroke-linecap:round; stroke-linejoin:round; stroke-width:4; stroke-opacity:1; fill:none" points="163.509,767.766 182.407,767.766 "/>
<polyline clip-path="url(#clip570)" style="stroke:#000000; stroke-linecap:round; stroke-linejoin:round; stroke-width:4; stroke-opacity:1; fill:none" points="163.509,521.584 182.407,521.584 "/>
<polyline clip-path="url(#clip570)" style="stroke:#000000; stroke-linecap:round; stroke-linejoin:round; stroke-width:4; stroke-opacity:1; fill:none" points="163.509,275.403 182.407,275.403 "/>
<path clip-path="url(#clip570)" d="M118.565 999.746 Q114.953 999.746 113.125 1003.31 Q111.319 1006.85 111.319 1013.98 Q111.319 1021.09 113.125 1024.65 Q114.953 1028.19 118.565 1028.19 Q122.199 1028.19 124.004 1024.65 Q125.833 1021.09 125.833 1013.98 Q125.833 1006.85 124.004 1003.31 Q122.199 999.746 118.565 999.746 M118.565 996.042 Q124.375 996.042 127.43 1000.65 Q130.509 1005.23 130.509 1013.98 Q130.509 1022.71 127.43 1027.32 Q124.375 1031.9 118.565 1031.9 Q112.754 1031.9 109.676 1027.32 Q106.62 1022.71 106.62 1013.98 Q106.62 1005.23 109.676 1000.65 Q112.754 996.042 118.565 996.042 Z" fill="#000000" fill-rule="nonzero" fill-opacity="1" /><path clip-path="url(#clip570)" d="M110.602 781.111 L118.24 781.111 L118.24 754.745 L109.93 756.412 L109.93 752.152 L118.194 750.486 L122.87 750.486 L122.87 781.111 L130.509 781.111 L130.509 785.046 L110.602 785.046 L110.602 781.111 Z" fill="#000000" fill-rule="nonzero" fill-opacity="1" /><path clip-path="url(#clip570)" d="M114.19 534.929 L130.509 534.929 L130.509 538.864 L108.565 538.864 L108.565 534.929 Q111.227 532.175 115.81 527.545 Q120.416 522.892 121.597 521.55 Q123.842 519.026 124.722 517.29 Q125.625 515.531 125.625 513.841 Q125.625 511.087 123.68 509.351 Q121.759 507.615 118.657 507.615 Q116.458 507.615 114.004 508.378 Q111.574 509.142 108.796 510.693 L108.796 505.971 Q111.62 504.837 114.074 504.258 Q116.528 503.679 118.565 503.679 Q123.935 503.679 127.129 506.365 Q130.324 509.05 130.324 513.54 Q130.324 515.67 129.514 517.591 Q128.727 519.489 126.62 522.082 Q126.041 522.753 122.94 525.971 Q119.838 529.165 114.19 534.929 Z" fill="#000000" fill-rule="nonzero" fill-opacity="1" /><path clip-path="url(#clip570)" d="M123.379 274.049 Q126.736 274.766 128.611 277.035 Q130.509 279.303 130.509 282.637 Q130.509 287.752 126.99 290.553 Q123.472 293.354 116.99 293.354 Q114.815 293.354 112.5 292.914 Q110.208 292.498 107.754 291.641 L107.754 287.127 Q109.699 288.262 112.014 288.84 Q114.328 289.419 116.852 289.419 Q121.25 289.419 123.541 287.683 Q125.856 285.947 125.856 282.637 Q125.856 279.581 123.703 277.868 Q121.574 276.132 117.754 276.132 L113.727 276.132 L113.727 272.29 L117.94 272.29 Q121.389 272.29 123.217 270.924 Q125.046 269.535 125.046 266.942 Q125.046 264.28 123.148 262.868 Q121.273 261.433 117.754 261.433 Q115.833 261.433 113.634 261.85 Q111.435 262.266 108.796 263.146 L108.796 258.979 Q111.458 258.239 113.773 257.868 Q116.111 257.498 118.171 257.498 Q123.495 257.498 126.597 259.929 Q129.699 262.336 129.699 266.456 Q129.699 269.327 128.055 271.317 Q126.412 273.285 123.379 274.049 Z" fill="#000000" fill-rule="nonzero" fill-opacity="1" /><path clip-path="url(#clip570)" d="M41.4447 687.25 Q41.4447 694.347 43.0679 697.085 Q44.6912 699.822 48.6061 699.822 Q51.7253 699.822 53.5714 697.785 Q55.3856 695.716 55.3856 692.183 Q55.3856 687.313 51.9481 684.385 Q48.4788 681.425 42.7497 681.425 L41.4447 681.425 L41.4447 687.25 M39.0257 675.569 L59.3642 675.569 L59.3642 681.425 L53.9533 681.425 Q57.1998 683.43 58.7594 686.422 Q60.2872 689.414 60.2872 693.743 Q60.2872 699.217 57.2316 702.464 Q54.1443 705.678 48.9881 705.678 Q42.9725 705.678 39.9169 701.668 Q36.8614 697.626 36.8614 689.637 L36.8614 681.425 L36.2885 681.425 Q32.2462 681.425 30.0501 684.099 Q27.8221 686.74 27.8221 691.547 Q27.8221 694.602 28.5541 697.498 Q29.2862 700.395 30.7503 703.068 L25.3395 703.068 Q24.0981 699.854 23.4934 696.83 Q22.8568 693.806 22.8568 690.942 Q22.8568 683.207 26.8672 679.388 Q30.8776 675.569 39.0257 675.569 Z" fill="#000000" fill-rule="nonzero" fill-opacity="1" /><path clip-path="url(#clip570)" d="M30.5593 635.751 Q26.6126 633.555 24.7347 630.499 Q22.8568 627.444 22.8568 623.306 Q22.8568 617.736 26.7717 614.712 Q30.6548 611.689 37.8481 611.689 L59.3642 611.689 L59.3642 617.577 L38.039 617.577 Q32.9146 617.577 30.432 619.391 Q27.9494 621.205 27.9494 624.929 Q27.9494 629.481 30.9731 632.123 Q33.9968 634.764 39.2167 634.764 L59.3642 634.764 L59.3642 640.653 L38.039 640.653 Q32.8828 640.653 30.432 642.467 Q27.9494 644.281 27.9494 648.069 Q27.9494 652.557 31.0049 655.198 Q34.0286 657.84 39.2167 657.84 L59.3642 657.84 L59.3642 663.728 L23.7162 663.728 L23.7162 657.84 L29.2544 657.84 Q25.976 655.835 24.4164 653.034 Q22.8568 650.233 22.8568 646.382 Q22.8568 642.499 24.8302 639.793 Q26.8036 637.056 30.5593 635.751 Z" fill="#000000" fill-rule="nonzero" fill-opacity="1" /><path clip-path="url(#clip570)" d="M54.017 594.342 L72.9231 594.342 L72.9231 600.23 L23.7162 600.23 L23.7162 594.342 L29.1271 594.342 Q25.9442 592.496 24.4164 589.695 Q22.8568 586.863 22.8568 582.948 Q22.8568 576.455 28.0131 572.412 Q33.1693 568.338 41.572 568.338 Q49.9747 568.338 55.131 572.412 Q60.2872 576.455 60.2872 582.948 Q60.2872 586.863 58.7594 589.695 Q57.1998 592.496 54.017 594.342 M41.572 574.418 Q35.1108 574.418 31.4505 577.091 Q27.7584 579.733 27.7584 584.38 Q27.7584 589.027 31.4505 591.7 Q35.1108 594.342 41.572 594.342 Q48.0332 594.342 51.7253 591.7 Q55.3856 589.027 55.3856 584.38 Q55.3856 579.733 51.7253 577.091 Q48.0332 574.418 41.572 574.418 Z" fill="#000000" fill-rule="nonzero" fill-opacity="1" /><path clip-path="url(#clip570)" d="M9.83896 558.631 L9.83896 552.774 L59.3642 552.774 L59.3642 558.631 L9.83896 558.631 Z" fill="#000000" fill-rule="nonzero" fill-opacity="1" /><path clip-path="url(#clip570)" d="M23.7162 540.52 L23.7162 534.664 L59.3642 534.664 L59.3642 540.52 L23.7162 540.52 M9.83896 540.52 L9.83896 534.664 L17.255 534.664 L17.255 540.52 L9.83896 540.52 Z" fill="#000000" fill-rule="nonzero" fill-opacity="1" /><path clip-path="url(#clip570)" d="M13.5947 516.617 L23.7162 516.617 L23.7162 504.554 L28.2677 504.554 L28.2677 516.617 L47.6194 516.617 Q51.9799 516.617 53.2213 515.439 Q54.4626 514.23 54.4626 510.57 L54.4626 504.554 L59.3642 504.554 L59.3642 510.57 Q59.3642 517.349 56.8497 519.927 Q54.3034 522.505 47.6194 522.505 L28.2677 522.505 L28.2677 526.802 L23.7162 526.802 L23.7162 522.505 L13.5947 522.505 L13.5947 516.617 Z" fill="#000000" fill-rule="nonzero" fill-opacity="1" /><path clip-path="url(#clip570)" d="M45.2959 497.456 L23.7162 497.456 L23.7162 491.6 L45.0731 491.6 Q50.1339 491.6 52.6802 489.626 Q55.1946 487.653 55.1946 483.706 Q55.1946 478.964 52.1709 476.227 Q49.1472 473.457 43.9273 473.457 L23.7162 473.457 L23.7162 467.601 L59.3642 467.601 L59.3642 473.457 L53.8896 473.457 Q57.1362 475.59 58.7276 478.423 Q60.2872 481.224 60.2872 484.948 Q60.2872 491.09 56.4678 494.273 Q52.6483 497.456 45.2959 497.456 M22.8568 482.72 L22.8568 482.72 Z" fill="#000000" fill-rule="nonzero" fill-opacity="1" /><path clip-path="url(#clip570)" d="M29.1271 432.08 L9.83896 432.08 L9.83896 426.224 L59.3642 426.224 L59.3642 432.08 L54.017 432.08 Q57.1998 433.926 58.7594 436.759 Q60.2872 439.56 60.2872 443.507 Q60.2872 449.968 55.131 454.042 Q49.9747 458.084 41.572 458.084 Q33.1693 458.084 28.0131 454.042 Q22.8568 449.968 22.8568 443.507 Q22.8568 439.56 24.4164 436.759 Q25.9442 433.926 29.1271 432.08 M41.572 452.037 Q48.0332 452.037 51.7253 449.395 Q55.3856 446.721 55.3856 442.075 Q55.3856 437.428 51.7253 434.754 Q48.0332 432.08 41.572 432.08 Q35.1108 432.08 31.4505 434.754 Q27.7584 437.428 27.7584 442.075 Q27.7584 446.721 31.4505 449.395 Q35.1108 452.037 41.572 452.037 Z" fill="#000000" fill-rule="nonzero" fill-opacity="1" /><path clip-path="url(#clip570)" d="M40.0761 383.669 L42.9406 383.669 L42.9406 410.596 Q48.9881 410.214 52.1709 406.968 Q55.3219 403.689 55.3219 397.865 Q55.3219 394.491 54.4944 391.34 Q53.6669 388.157 52.0118 385.038 L57.5499 385.038 Q58.8867 388.189 59.587 391.499 Q60.2872 394.809 60.2872 398.215 Q60.2872 406.745 55.3219 411.742 Q50.3567 416.707 41.8903 416.707 Q33.1374 416.707 28.0131 411.997 Q22.8568 407.254 22.8568 399.233 Q22.8568 392.04 27.5038 387.871 Q32.1189 383.669 40.0761 383.669 M38.3573 389.526 Q33.5512 389.589 30.6866 392.231 Q27.8221 394.841 27.8221 399.17 Q27.8221 404.071 30.5912 407.031 Q33.3602 409.96 38.3892 410.405 L38.3573 389.526 Z" fill="#000000" fill-rule="nonzero" fill-opacity="1" /><polyline clip-path="url(#clip572)" style="stroke:#009af9; stroke-linecap:round; stroke-linejoin:round; stroke-width:12; stroke-opacity:1; fill:none" points="219.808,1013.95 223.569,1013.92 227.33,1013.76 231.091,1013.54 234.852,1013.26 238.612,1012.96 242.373,1012.68 246.134,1012.47 249.895,1012.35 253.656,1012.35 257.417,1012.47 261.177,1012.68 264.938,1012.93 268.699,1013.2 272.46,1013.43 276.221,1013.61 279.981,1013.74 283.742,1013.83 287.503,1013.88 291.264,1013.91 295.025,1013.93 298.786,1013.94 302.546,1013.94 306.307,1013.94 310.068,1013.95 313.829,1013.95 317.59,1013.95 321.35,1013.95 325.111,1013.95 328.872,1013.95 332.633,1013.95 336.394,1013.95 340.155,1013.95 343.915,1013.95 347.676,1013.95 351.437,1013.95 355.198,1013.95 358.959,1013.95 362.719,1013.95 366.48,1013.95 370.241,1013.95 374.002,1013.95 377.763,1013.95 381.524,1013.95 385.284,1013.95 389.045,1013.95 392.806,1013.95 396.567,1013.95 400.328,1013.95 404.088,1013.95 407.849,1013.95 411.61,1013.95 415.371,1013.95 419.132,1013.95 422.893,1013.95 426.653,1013.95 430.414,1013.95 434.175,1013.95 437.936,1013.95 441.697,1013.95 445.457,1013.95 449.218,1013.95 452.979,1013.95 456.74,1013.95 460.501,1013.95 464.262,1013.95 468.022,1013.95 471.783,1013.95 475.544,1013.95 479.305,1013.95 483.066,1013.95 486.826,1013.95 490.587,1013.95 494.348,1013.95 498.109,1013.95 501.87,1013.95 505.631,1013.95 509.391,1013.95 513.152,1013.95 516.913,1013.95 520.674,1013.95 524.435,1013.95 528.195,1013.95 531.956,1013.95 535.717,1013.95 539.478,1013.95 543.239,1013.95 547,1013.94 550.76,1013.94 554.521,1013.94 558.282,1013.94 562.043,1013.94 565.804,1013.94 569.564,1013.94 573.325,1013.94 577.086,1013.94 580.847,1013.94 584.608,1013.94 588.369,1013.94 592.129,1013.94 595.89,1013.94 599.651,1013.94 603.412,1013.94 607.173,1013.94 610.933,1013.94 614.694,1013.94 618.455,1013.94 622.216,1013.94 625.977,1013.94 629.738,1013.94 633.498,1013.93 637.259,1013.93 641.02,1013.93 644.781,1013.93 648.542,1013.93 652.302,1013.93 656.063,1013.92 659.824,1013.92 663.585,1013.92 667.346,1013.92 671.107,1013.91 674.867,1013.91 678.628,1013.91 682.389,1013.9 686.15,1013.9 689.911,1013.89 693.671,1013.89 697.432,1013.88 701.193,1013.88 704.954,1013.87 708.715,1013.86 712.475,1013.85 716.236,1013.84 719.997,1013.83 723.758,1013.82 727.519,1013.8 731.28,1013.78 735.04,1013.77 738.801,1013.75 742.562,1013.72 746.323,1013.7 750.084,1013.67 753.844,1013.64 757.605,1013.6 761.366,1013.57 765.127,1013.52 768.888,1013.47 772.649,1013.42 776.409,1013.36 780.17,1013.29 783.931,1013.21 787.692,1013.13 791.453,1013.03 795.213,1012.92 798.974,1012.8 802.735,1012.67 806.496,1012.52 810.257,1012.35 814.018,1012.16 817.778,1011.95 821.539,1011.72 825.3,1011.45 829.061,1011.15 832.822,1010.82 836.582,1010.45 840.343,1010.03 844.104,1009.57 847.865,1009.04 851.626,1008.46 855.387,1007.8 859.147,1007.07 862.908,1006.25 866.669,1005.33 870.43,1004.31 874.191,1003.16 877.951,1001.88 881.712,1000.44 885.473,998.842 889.234,997.053 892.995,995.056 896.756,992.827 900.516,990.341 904.277,987.569 908.038,984.481 911.799,981.043 915.56,977.216 919.32,972.962 923.081,968.235 926.842,962.988 930.603,957.168 934.364,950.719 938.125,943.583 941.885,935.694 945.646,926.984 949.407,917.381 953.168,906.811 956.929,895.194 960.689,882.451 964.45,868.499 968.211,853.257 971.972,836.643 975.733,818.581 979.494,798.999 983.254,777.831 987.015,755.026 990.776,730.545 994.537,704.368 998.298,676.496 1002.06,646.958 1005.82,615.814 1009.58,583.16 1013.34,549.13 1017.1,513.902 1020.86,477.7 1024.62,440.796 1028.38,403.507 1032.15,366.197 1035.91,329.269 1039.67,293.162 1043.43,258.341 1047.19,225.284 1050.95,194.47 1054.71,166.366 1058.47,141.413 1062.23,120.005 1065.99,102.481 1069.75,89.1106 1073.51,80.0848 1077.27,75.5088 1081.04,75.4005 1084.8,79.6915 1088.56,88.2317 1092.32,100.798 1096.08,117.103 1099.84,136.81 1103.6,159.544 1107.36,184.904 1111.12,212.481 1114.88,241.862 1118.64,272.648 1122.4,304.454 1126.17,336.923 1129.93,369.726 1133.69,402.568 1137.45,435.188 1141.21,467.356 1144.97,498.881 1148.73,529.599 1152.49,559.379 1156.25,588.117 1160.01,615.733 1163.77,642.171 1167.53,667.394 1171.3,691.38 1175.06,714.124 1178.82,735.633 1182.58,755.924 1186.34,775.02 1190.1,792.955 1193.86,809.766 1197.62,825.493 1201.38,840.181 1205.14,853.877 1208.9,866.627 1212.66,878.48 1216.43,889.483 1220.19,899.685 1223.95,909.131 1227.71,917.868 1231.47,925.939 1235.23,933.388 1238.99,940.255 1242.75,946.579 1246.51,952.398 1250.27,957.748 1254.03,962.661 1257.79,967.17 1261.55,971.305 1265.32,975.094 1269.08,978.563 1272.84,981.736 1276.6,984.638 1280.36,987.29 1284.12,989.711 1287.88,991.921 1291.64,993.936 1295.4,995.773 1299.16,997.447 1302.92,998.971 1306.68,1000.36 1310.45,1001.62 1314.21,1002.77 1317.97,1003.81 1321.73,1004.76 1325.49,1005.62 1329.25,1006.4 1333.01,1007.11 1336.77,1007.75 1340.53,1008.34 1344.29,1008.87 1348.05,1009.34 1351.81,1009.78 1355.58,1010.17 1359.34,1010.53 1363.1,1010.85 1366.86,1011.15 1370.62,1011.41 1374.38,1011.65 1378.14,1011.87 1381.9,1012.06 1385.66,1012.24 1389.42,1012.4 1393.18,1012.55 1396.94,1012.68 1400.71,1012.8 1404.47,1012.91 1408.23,1013.01 1411.99,1013.09 1415.75,1013.17 1419.51,1013.25 1423.27,1013.31 1427.03,1013.37 1430.79,1013.42 1434.55,1013.47 1438.31,1013.52 1442.07,1013.56 1445.83,1013.59 1449.6,1013.62 1453.36,1013.65 1457.12,1013.68 1460.88,1013.7 1464.64,1013.73 1468.4,1013.75 1472.16,1013.76 1475.92,1013.78 1479.68,1013.8 1483.44,1013.81 1487.2,1013.82 1490.96,1013.83 1494.73,1013.84 1498.49,1013.85 1502.25,1013.86 1506.01,1013.87 1509.77,1013.87 1513.53,1013.88 1517.29,1013.89 1521.05,1013.89 1524.81,1013.9 1528.57,1013.9 1532.33,1013.9 1536.09,1013.91 1539.86,1013.91 1543.62,1013.91 1547.38,1013.92 1551.14,1013.92 1554.9,1013.92 1558.66,1013.92 1562.42,1013.92 1566.18,1013.93 1569.94,1013.93 1573.7,1013.93 1577.46,1013.93 1581.22,1013.93 1584.99,1013.93 1588.75,1013.93 1592.51,1013.94 1596.27,1013.94 1600.03,1013.94 1603.79,1013.94 1607.55,1013.94 1611.31,1013.94 1615.07,1013.94 1618.83,1013.94 1622.59,1013.94 1626.35,1013.94 1630.12,1013.94 1633.88,1013.94 1637.64,1013.94 1641.4,1013.94 1645.16,1013.94 1648.92,1013.94 1652.68,1013.94 1656.44,1013.94 1660.2,1013.94 1663.96,1013.94 1667.72,1013.94 1671.48,1013.94 1675.24,1013.94 1679.01,1013.94 1682.77,1013.94 1686.53,1013.94 1690.29,1013.94 1694.05,1013.94 1697.81,1013.95 1701.57,1013.95 1705.33,1013.95 1709.09,1013.95 1712.85,1013.95 1716.61,1013.95 1720.37,1013.95 1724.14,1013.95 1727.9,1013.95 1731.66,1013.95 1735.42,1013.95 1739.18,1013.95 1742.94,1013.95 1746.7,1013.95 1750.46,1013.95 1754.22,1013.95 1757.98,1013.95 1761.74,1013.95 1765.5,1013.95 1769.27,1013.95 1773.03,1013.95 1776.79,1013.95 1780.55,1013.95 1784.31,1013.95 1788.07,1013.95 1791.83,1013.95 1795.59,1013.95 1799.35,1013.95 1803.11,1013.95 1806.87,1013.95 1810.63,1013.95 1814.4,1013.95 1818.16,1013.95 1821.92,1013.95 1825.68,1013.95 1829.44,1013.95 1833.2,1013.95 1836.96,1013.95 1840.72,1013.95 1844.48,1013.95 1848.24,1013.95 1852,1013.95 1855.76,1013.95 1859.52,1013.95 1863.29,1013.95 1867.05,1013.95 1870.81,1013.95 1874.57,1013.95 1878.33,1013.95 1882.09,1013.95 1885.85,1013.95 1889.61,1013.95 1893.37,1013.95 1897.13,1013.95 1900.89,1013.95 1904.65,1013.95 1908.42,1013.95 1912.18,1013.95 1915.94,1013.95 1919.7,1013.95 1923.46,1013.95 1927.22,1013.95 1930.98,1013.95 1934.74,1013.95 1938.5,1013.95 1942.26,1013.95 1946.02,1013.95 1949.78,1013.95 1953.55,1013.95 1957.31,1013.95 1961.07,1013.95 1964.83,1013.95 1968.59,1013.95 1972.35,1013.95 1976.11,1013.95 1979.87,1013.95 1983.63,1013.95 1987.39,1013.95 1991.15,1013.95 1994.91,1013.95 1998.68,1013.94 2002.44,1013.94 2006.2,1013.94 2009.96,1013.94 2013.72,1013.93 2017.48,1013.92 2021.24,1013.89 2025,1013.85 2028.76,1013.79 2032.52,1013.68 2036.28,1013.53 2040.04,1013.32 2043.81,1013.06 2047.57,1012.77 2051.33,1012.47 2055.09,1012.22 2058.85,1012.05 2062.61,1012 2066.37,1012.09 2070.13,1012.29 2073.89,1012.58 2077.65,1012.91 2081.41,1013.24 2085.17,1013.53 2088.93,1013.76 2092.7,1013.92 2096.46,1013.95 "/>
</svg>
